<svg viewBox="0 0 230 30" fill="none" xmlns="http://www.w3.org/2000/svg">
<path d="M10.68 29.44C10.0667 29.44 9.32 29.4 8.44 29.32C5.58667 29.1067 3.08 29 0.92 29C0.333333 28.2533 0.04 27.4 0.04 26.44C0.92 26.44 1.54667 26.2933 1.92 26C2.32 25.68 2.52 25.1467 2.52 24.4V5.6C2.52 4.88 2.32 4.37333 1.92 4.08C1.54667 3.76 0.92 3.6 0.04 3.6C0.04 2.58666 0.333333 1.74667 0.92 1.08C2.94667 1.08 4.77333 1.02667 6.4 0.919999C8.02667 0.813332 8.98667 0.746666 9.28 0.719999C10.1867 0.639999 10.84 0.599998 11.24 0.599998C14.2 0.599998 16.68 1.21333 18.68 2.44C20.7067 3.66667 22.2 5.33333 23.16 7.44C24.1467 9.52 24.64 11.8533 24.64 14.44C24.64 17.2933 24.1333 19.8533 23.12 22.12C22.1333 24.36 20.6 26.1467 18.52 27.48C16.44 28.7867 13.8267 29.44 10.68 29.44ZM10.36 26.12C12.6533 26.12 14.4133 25.2533 15.64 23.52C16.8933 21.76 17.52 18.9333 17.52 15.04C17.52 11.28 16.8533 8.46667 15.52 6.6C14.2133 4.73333 12.3867 3.8 10.04 3.8C9.58667 3.8 9.26667 3.82666 9.08 3.88V26.04C9.34667 26.0933 9.77333 26.12 10.36 26.12ZM49.6788 20.56C49.6788 21.44 49.4654 23.0133 49.0388 25.28C48.6121 27.52 48.2254 28.9733 47.8788 29.64C47.4521 29.5333 46.8921 29.32 46.1988 29H27.6788C27.0654 28.2 26.7588 27.36 26.7588 26.48C27.6654 26.48 28.3321 26.32 28.7588 26C29.1854 25.68 29.3988 25.1467 29.3988 24.4V5.64C29.3988 4.92 29.1854 4.4 28.7588 4.08C28.3588 3.76 27.7054 3.6 26.7988 3.6C26.7988 2.72 27.1054 1.88 27.7188 1.08H43.2388C43.6921 0.866666 44.2121 0.706665 44.7988 0.599998C45.4121 0.466665 45.9721 0.399999 46.4788 0.399999C46.8788 1.17333 47.3054 2.24 47.7587 3.6C48.2388 4.96 48.4788 5.94666 48.4788 6.56C48.1588 6.85333 47.6121 7.16 46.8387 7.48C46.0654 7.8 45.3988 8.01333 44.8388 8.12C44.4921 7.13333 43.9454 6.28 43.1988 5.56C42.4521 4.84 41.5854 4.48 40.5988 4.48H36.0788V12.92H38.9588C40.6921 12.92 41.5588 11.9467 41.5588 10C42.7588 10 43.8388 10.28 44.7988 10.84V18.28C44.3721 18.5467 43.8788 18.76 43.3188 18.92C42.7588 19.0533 42.1854 19.12 41.5988 19.12C41.5988 18.1067 41.3588 17.3467 40.8788 16.84C40.3988 16.3333 39.7721 16.08 38.9988 16.08H36.0788V25.48H40.9188C42.0388 25.48 43.0121 25.0133 43.8388 24.08C44.6654 23.12 45.1854 21.9467 45.3988 20.56H49.6788ZM76.4881 1.08C76.9148 1.74667 77.1281 2.58666 77.1281 3.6C76.1948 3.6 75.4615 3.74667 74.9281 4.04C74.3948 4.30667 74.0081 4.78667 73.7681 5.48L66.9681 25.44C66.4881 26.8267 65.9281 27.8133 65.2881 28.4C64.6748 28.9867 63.7815 29.28 62.6081 29.28H61.3681L52.0481 5.48C51.7815 4.78667 51.3948 4.30667 50.8881 4.04C50.3815 3.74667 49.6615 3.6 48.7281 3.6C48.7281 2.64 48.9415 1.8 49.3681 1.08H61.2081C61.6881 1.93333 61.9281 2.77333 61.9281 3.6C61.1815 3.6 60.5948 3.76 60.1681 4.08C59.7681 4.4 59.5681 4.84 59.5681 5.4C59.5681 5.56 59.6481 5.88 59.8081 6.36L63.1681 17.2L64.3681 21.6L65.5681 17.28L68.7681 6.24C68.8748 5.81333 68.9281 5.53333 68.9281 5.4C68.9281 4.84 68.7281 4.4 68.3281 4.08C67.9281 3.76 67.3415 3.6 66.5681 3.6C66.5681 3.06667 66.6081 2.61333 66.6881 2.24C66.7948 1.84 66.9681 1.45333 67.2081 1.08H76.4881ZM83.1619 25.56C83.1619 26.7333 82.7885 27.6933 82.0419 28.44C81.2952 29.16 80.3219 29.52 79.1219 29.52C77.8952 29.52 76.9085 29.16 76.1619 28.44C75.4152 27.6933 75.0419 26.7333 75.0419 25.56C75.0419 24.36 75.4152 23.4 76.1619 22.68C76.9085 21.96 77.8952 21.6 79.1219 21.6C80.3219 21.6 81.2952 21.96 82.0419 22.68C82.7885 23.4 83.1619 24.36 83.1619 25.56ZM89.7934 19.16C90.2201 21.4 91.0601 23.1733 92.3134 24.48C93.5668 25.76 95.0468 26.4 96.7534 26.4C97.8734 26.4 98.7001 26.08 99.2334 25.44C99.7668 24.8 100.033 24.0933 100.033 23.32C100.033 22.1733 99.5268 21.2133 98.5134 20.44C97.5268 19.64 96.1001 18.7867 94.2334 17.88C91.7268 16.6533 89.8334 15.2933 88.5534 13.8C87.2734 12.3067 86.6334 10.4933 86.6334 8.36C86.6334 6.78666 87.0201 5.42666 87.7934 4.28C88.5934 3.10666 89.6734 2.21333 91.0334 1.6C92.3934 0.986666 93.9134 0.68 95.5934 0.68C96.4734 0.68 97.4201 0.773333 98.4334 0.959999C99.4734 1.12 100.3 1.37333 100.913 1.72L104.313 0.68C104.793 1.50667 105.1 2.65333 105.233 4.12C105.367 5.56 105.433 7.22667 105.433 9.12V9.72H102.113C101.153 5.82667 99.2734 3.88 96.4734 3.88C95.4068 3.88 94.6068 4.18667 94.0734 4.8C93.5401 5.38667 93.2734 6.17333 93.2734 7.16C93.2734 7.96 93.4868 8.65333 93.9134 9.24C94.3401 9.82667 94.8734 10.3333 95.5134 10.76C96.1801 11.16 97.0601 11.6267 98.1534 12.16C99.8334 12.9867 101.233 13.76 102.353 14.48C103.5 15.2 104.487 16.16 105.313 17.36C106.14 18.5333 106.553 19.9333 106.553 21.56C106.553 23.0533 106.18 24.4133 105.433 25.64C104.687 26.84 103.593 27.8 102.153 28.52C100.74 29.24 99.0868 29.6 97.1934 29.6C95.0334 29.6 92.8868 29.1467 90.7534 28.24L87.6734 29.6C87.1668 28.5867 86.7268 27.0133 86.3534 24.88C85.9801 22.72 85.7934 20.8133 85.7934 19.16H89.7934ZM125.664 10C125.424 8.21333 124.931 6.78666 124.184 5.72C123.464 4.65333 122.531 4.12 121.384 4.12C119.758 4.12 118.464 4.89333 117.504 6.44C116.544 7.96 116.064 10.32 116.064 13.52C116.064 17.3867 116.811 20.2133 118.304 22C119.798 23.7867 121.731 24.68 124.104 24.68C125.251 24.68 126.264 24.4667 127.144 24.04C128.024 23.6133 128.651 23.1067 129.024 22.52C129.344 22.76 129.611 23.12 129.824 23.6C130.038 24.08 130.144 24.52 130.144 24.92C130.144 25.5867 129.798 26.28 129.104 27C128.438 27.72 127.464 28.3333 126.184 28.84C124.904 29.32 123.424 29.56 121.744 29.56C119.398 29.56 117.251 29.0133 115.304 27.92C113.384 26.8267 111.851 25.1733 110.704 22.96C109.558 20.7467 108.984 18.0667 108.984 14.92C108.984 11.8533 109.504 9.25333 110.544 7.12C111.584 4.96 113.038 3.34667 114.904 2.28C116.798 1.18666 118.998 0.639998 121.504 0.639998C122.091 0.639998 122.758 0.719999 123.504 0.88C124.251 1.04 124.904 1.25333 125.464 1.52C125.864 1.33333 126.451 1.14667 127.224 0.959999C127.998 0.773333 128.598 0.666666 129.024 0.639998C129.798 2.53333 130.184 5.65333 130.184 10H125.664ZM156.477 24.44C156.477 25.1867 156.65 25.7067 156.997 26C157.37 26.2933 157.984 26.44 158.837 26.44C158.837 26.92 158.757 27.3867 158.597 27.84C158.437 28.2933 158.224 28.68 157.957 29H148.237C147.97 28.68 147.757 28.2933 147.597 27.84C147.437 27.3867 147.357 26.92 147.357 26.44C148.237 26.44 148.85 26.2933 149.197 26C149.57 25.7067 149.757 25.1867 149.757 24.44V16.48H140.957V24.44C140.957 25.1867 141.13 25.7067 141.477 26C141.85 26.2933 142.477 26.44 143.357 26.44C143.357 26.92 143.277 27.3867 143.117 27.84C142.957 28.2933 142.744 28.68 142.477 29H132.717C132.45 28.68 132.237 28.2933 132.077 27.84C131.917 27.3867 131.837 26.92 131.837 26.44C132.717 26.44 133.33 26.2933 133.677 26C134.05 25.7067 134.237 25.1867 134.237 24.44V5.64C134.237 4.89333 134.05 4.37333 133.677 4.08C133.33 3.76 132.717 3.6 131.837 3.6C131.837 3.14667 131.917 2.69333 132.077 2.24C132.237 1.78666 132.45 1.4 132.717 1.08H142.477C142.744 1.4 142.957 1.78666 143.117 2.24C143.277 2.69333 143.357 3.14667 143.357 3.6C142.477 3.6 141.85 3.76 141.477 4.08C141.13 4.37333 140.957 4.89333 140.957 5.64V13.12H149.757V5.64C149.757 4.89333 149.57 4.37333 149.197 4.08C148.824 3.76 148.21 3.6 147.357 3.6C147.357 3.14667 147.437 2.69333 147.597 2.24C147.757 1.78666 147.97 1.4 148.237 1.08H157.957C158.224 1.4 158.437 1.78666 158.597 2.24C158.757 2.69333 158.837 3.14667 158.837 3.6C157.984 3.6 157.37 3.76 156.997 4.08C156.65 4.37333 156.477 4.89333 156.477 5.64V24.44ZM161.819 29C161.526 28.68 161.299 28.2933 161.139 27.84C160.979 27.3867 160.899 26.92 160.899 26.44C161.806 26.44 162.446 26.2933 162.819 26C163.193 25.7067 163.379 25.1867 163.379 24.44V5.64C163.379 4.89333 163.193 4.37333 162.819 4.08C162.446 3.76 161.806 3.6 160.899 3.6C160.899 3.12 160.979 2.66666 161.139 2.24C161.299 1.78666 161.526 1.4 161.819 1.08H171.699C172.286 1.69333 172.579 2.53333 172.579 3.6C171.673 3.6 171.006 3.76 170.579 4.08C170.153 4.4 169.939 4.92 169.939 5.64V25.6H171.419C173.366 25.6 174.806 24.96 175.739 23.68C176.699 22.4 177.179 20.6 177.179 18.28H179.979C180.433 18.6267 180.793 19.3733 181.059 20.52C181.326 21.6667 181.459 22.7867 181.459 23.88C181.459 25.56 181.166 26.84 180.579 27.72C179.993 28.5733 179.033 29 177.699 29H161.819ZM205.304 20.56C205.304 21.44 205.09 23.0133 204.664 25.28C204.237 27.52 203.85 28.9733 203.504 29.64C203.077 29.5333 202.517 29.32 201.824 29H183.304C182.69 28.2 182.384 27.36 182.384 26.48C183.29 26.48 183.957 26.32 184.384 26C184.81 25.68 185.024 25.1467 185.024 24.4V5.64C185.024 4.92 184.81 4.4 184.384 4.08C183.984 3.76 183.33 3.6 182.424 3.6C182.424 2.72 182.73 1.88 183.344 1.08H198.864C199.317 0.866666 199.837 0.706665 200.424 0.599998C201.037 0.466665 201.597 0.399999 202.104 0.399999C202.504 1.17333 202.93 2.24 203.384 3.6C203.864 4.96 204.104 5.94666 204.104 6.56C203.784 6.85333 203.237 7.16 202.464 7.48C201.69 7.8 201.024 8.01333 200.464 8.12C200.117 7.13333 199.57 6.28 198.824 5.56C198.077 4.84 197.21 4.48 196.224 4.48H191.704V12.92H194.584C196.317 12.92 197.184 11.9467 197.184 10C198.384 10 199.464 10.28 200.424 10.84V18.28C199.997 18.5467 199.504 18.76 198.944 18.92C198.384 19.0533 197.81 19.12 197.224 19.12C197.224 18.1067 196.984 17.3467 196.504 16.84C196.024 16.3333 195.397 16.08 194.624 16.08H191.704V25.48H196.544C197.664 25.48 198.637 25.0133 199.464 24.08C200.29 23.12 200.81 21.9467 201.024 20.56H205.304ZM229.523 20.56C229.523 21.44 229.309 23.0133 228.883 25.28C228.456 27.52 228.069 28.9733 227.723 29.64C227.296 29.5333 226.736 29.32 226.043 29H207.523C206.909 28.2 206.603 27.36 206.603 26.48C207.509 26.48 208.176 26.32 208.603 26C209.029 25.68 209.243 25.1467 209.243 24.4V5.64C209.243 4.92 209.029 4.4 208.603 4.08C208.203 3.76 207.549 3.6 206.643 3.6C206.643 2.72 206.949 1.88 207.563 1.08H223.083C223.536 0.866666 224.056 0.706665 224.643 0.599998C225.256 0.466665 225.816 0.399999 226.323 0.399999C226.723 1.17333 227.149 2.24 227.602 3.6C228.083 4.96 228.323 5.94666 228.323 6.56C228.003 6.85333 227.456 7.16 226.682 7.48C225.909 7.8 225.243 8.01333 224.683 8.12C224.336 7.13333 223.789 6.28 223.043 5.56C222.296 4.84 221.429 4.48 220.443 4.48H215.923V12.92H218.803C220.536 12.92 221.403 11.9467 221.403 10C222.603 10 223.683 10.28 224.643 10.84V18.28C224.216 18.5467 223.723 18.76 223.163 18.92C222.603 19.0533 222.029 19.12 221.443 19.12C221.443 18.1067 221.203 17.3467 220.723 16.84C220.243 16.3333 219.616 16.08 218.843 16.08H215.923V25.48H220.763C221.883 25.48 222.856 25.0133 223.683 24.08C224.509 23.12 225.029 21.9467 225.243 20.56H229.523Z" fill="#000000"/>
</svg>
